<svg width="1440" height="1024" viewBox="0 0 1440 1024" fill="none" xmlns="http://www.w3.org/2000/svg">
<g clip-path="url(#clip0_1_2)">
<rect width="1440" height="1024" fill="#D85656"/>
<path d="M1418.5 -72.7959C1170.25 526.731 855.087 774.119 -69.8424 1032.41L1546.6 953.635L1418.5 -72.7959Z" fill="#E05656"/>
<path d="M1504 81C1199.08 653.789 861.528 869.626 -84 1037.5L1532.5 1115L1504 81Z" fill="#E25858"/>
<path d="M49 55.3646V87.0385M49 55.3646L78.2158 41L79.7262 54.8474L106.957 55.4044M49 55.3646L78.0432 70.3262M49 87.0385L78.0863 102M49 87.0385L61.9464 79.6373M78.0863 102L107 87.1181L96.3408 75.7378M78.0863 102L61.9464 79.6373M78.0863 102L78.0432 85.7652M96.3408 75.7378L106.957 55.4044M96.3408 75.7378L78.0432 85.7652M106.957 55.4044L78.0432 70.3262M78.0432 70.3262L61.9464 79.6373M78.0432 70.3262V85.7652" stroke="white" stroke-opacity="0.25"/>
<path d="M567 55.3646V87.0385M567 55.3646L594.201 41L595.607 54.8474L620.96 55.4044M567 55.3646L594.04 70.3262M567 87.0385L594.08 102M567 87.0385L579.054 79.6373M594.08 102L621 87.1181L611.076 75.7378M594.08 102L579.054 79.6373M594.08 102L594.04 85.7652M611.076 75.7378L620.96 55.4044M611.076 75.7378L594.04 85.7652M620.96 55.4044L594.04 70.3262M594.04 70.3262L579.054 79.6373M594.04 70.3262V85.7652" stroke="white" stroke-opacity="0.25"/>
<path d="M1081 55.3646V87.0385M1081 55.3646L1108.2 41L1109.61 54.8474L1134.96 55.4044M1081 55.3646L1108.04 70.3262M1081 87.0385L1108.08 102M1081 87.0385L1093.05 79.6373M1108.08 102L1135 87.1181L1125.08 75.7378M1108.08 102L1093.05 79.6373M1108.08 102L1108.04 85.7652M1125.08 75.7378L1134.96 55.4044M1125.08 75.7378L1108.04 85.7652M1134.96 55.4044L1108.04 70.3262M1108.04 70.3262L1093.05 79.6373M1108.04 70.3262V85.7652" stroke="white" stroke-opacity="0.25"/>
<path d="M310 55.3646V87.0385M310 55.3646L337.201 41L338.607 54.8474L363.96 55.4044M310 55.3646L337.04 70.3262M310 87.0385L337.08 102M310 87.0385L322.054 79.6373M337.08 102L364 87.1181L354.076 75.7378M337.08 102L322.054 79.6373M337.08 102L337.04 85.7652M354.076 75.7378L363.96 55.4044M354.076 75.7378L337.04 85.7652M363.96 55.4044L337.04 70.3262M337.04 70.3262L322.054 79.6373M337.04 70.3262V85.7652" stroke="white" stroke-opacity="0.25"/>
<path d="M824 55.3646V87.0385M824 55.3646L851.201 41L852.607 54.8474L877.96 55.4044M824 55.3646L851.04 70.3262M824 87.0385L851.08 102M824 87.0385L836.054 79.6373M851.08 102L878 87.1181L868.076 75.7378M851.08 102L836.054 79.6373M851.08 102L851.04 85.7652M868.076 75.7378L877.96 55.4044M868.076 75.7378L851.04 85.7652M877.96 55.4044L851.04 70.3262M851.04 70.3262L836.054 79.6373M851.04 70.3262V85.7652" stroke="white" stroke-opacity="0.25"/>
<path d="M1338 55.3646V87.0385M1338 55.3646L1367.22 41L1368.73 54.8474L1395.96 55.4044M1338 55.3646L1367.04 70.3262M1338 87.0385L1367.09 102M1338 87.0385L1350.95 79.6373M1367.09 102L1396 87.1181L1385.34 75.7378M1367.09 102L1350.95 79.6373M1367.09 102L1367.04 85.7652M1385.34 75.7378L1395.96 55.4044M1385.34 75.7378L1367.04 85.7652M1395.96 55.4044L1367.04 70.3262M1367.04 70.3262L1350.95 79.6373M1367.04 70.3262V85.7652" stroke="white" stroke-opacity="0.25"/>
<path d="M177 161.365V193.038M177 161.365L206.216 147L207.726 160.847L234.957 161.404M177 161.365L206.043 176.326M177 193.038L206.086 208M177 193.038L189.946 185.637M206.086 208L235 193.118L224.341 181.738M206.086 208L189.946 185.637M206.086 208L206.043 191.765M224.341 181.738L234.957 161.404M224.341 181.738L206.043 191.765M234.957 161.404L206.043 176.326M206.043 176.326L189.946 185.637M206.043 176.326V191.765" stroke="white" stroke-opacity="0.25"/>
<path d="M47 267.365V299.038M47 267.365L76.2158 253L77.7262 266.847L104.957 267.404M47 267.365L76.0432 282.326M47 299.038L76.0863 314M47 299.038L59.9464 291.637M76.0863 314L105 299.118L94.3408 287.738M76.0863 314L59.9464 291.637M76.0863 314L76.0432 297.765M94.3408 287.738L104.957 267.404M94.3408 287.738L76.0432 297.765M104.957 267.404L76.0432 282.326M76.0432 282.326L59.9464 291.637M76.0432 282.326V297.765" stroke="white" stroke-opacity="0.25"/>
<path d="M186 397.365V429.038M186 397.365L215.216 383L216.726 396.847L243.957 397.404M186 397.365L215.043 412.326M186 429.038L215.086 444M186 429.038L198.946 421.637M215.086 444L244 429.118L233.341 417.738M215.086 444L198.946 421.637M215.086 444L215.043 427.765M233.341 417.738L243.957 397.404M233.341 417.738L215.043 427.765M243.957 397.404L215.043 412.326M215.043 412.326L198.946 421.637M215.043 412.326V427.765" stroke="white" stroke-opacity="0.25"/>
<path d="M48 526.365V558.038M48 526.365L77.2158 512L78.7262 525.847L105.957 526.404M48 526.365L77.0432 541.326M48 558.038L77.0863 573M48 558.038L60.9464 550.637M77.0863 573L106 558.118L95.3408 546.738M77.0863 573L60.9464 550.637M77.0863 573L77.0432 556.765M95.3408 546.738L105.957 526.404M95.3408 546.738L77.0432 556.765M105.957 526.404L77.0432 541.326M77.0432 541.326L60.9464 550.637M77.0432 541.326V556.765" stroke="white" stroke-opacity="0.25"/>
<path d="M50 762.365V794.038M50 762.365L79.2158 748L80.7262 761.847L107.957 762.404M50 762.365L79.0432 777.326M50 794.038L79.0863 809M50 794.038L62.9464 786.637M79.0863 809L108 794.118L97.3408 782.738M79.0863 809L62.9464 786.637M79.0863 809L79.0432 792.765M97.3408 782.738L107.957 762.404M97.3408 782.738L79.0432 792.765M107.957 762.404L79.0432 777.326M79.0432 777.326L62.9464 786.637M79.0432 777.326V792.765" stroke="white" stroke-opacity="0.25"/>
<path d="M157 644.365V676.038M157 644.365L186.216 630L187.726 643.847L214.957 644.404M157 644.365L186.043 659.326M157 676.038L186.086 691M157 676.038L169.946 668.637M186.086 691L215 676.118L204.341 664.738M186.086 691L169.946 668.637M186.086 691L186.043 674.765M204.341 664.738L214.957 644.404M204.341 664.738L186.043 674.765M214.957 644.404L186.043 659.326M186.043 659.326L169.946 668.637M186.043 659.326V674.765" stroke="white" stroke-opacity="0.25"/>
<path d="M175 900.365V932.038M175 900.365L204.216 886L205.726 899.847L232.957 900.404M175 900.365L204.043 915.326M175 932.038L204.086 947M175 932.038L187.946 924.637M204.086 947L233 932.118L222.341 920.738M204.086 947L187.946 924.637M204.086 947L204.043 930.765M222.341 920.738L232.957 900.404M222.341 920.738L204.043 930.765M232.957 900.404L204.043 915.326M204.043 915.326L187.946 924.637M204.043 915.326V930.765" stroke="white" stroke-opacity="0.25"/>
<path d="M695 161.365V193.038M695 161.365L722.201 147L723.607 160.847L748.96 161.404M695 161.365L722.04 176.326M695 193.038L722.08 208M695 193.038L707.054 185.637M722.08 208L749 193.118L739.076 181.738M722.08 208L707.054 185.637M722.08 208L722.04 191.765M739.076 181.738L748.96 161.404M739.076 181.738L722.04 191.765M748.96 161.404L722.04 176.326M722.04 176.326L707.054 185.637M722.04 176.326V191.765" stroke="white" stroke-opacity="0.25"/>
<path d="M565 267.365V299.038M565 267.365L592.201 253L593.607 266.847L618.96 267.404M565 267.365L592.04 282.326M565 299.038L592.08 314M565 299.038L577.054 291.637M592.08 314L619 299.118L609.076 287.738M592.08 314L577.054 291.637M592.08 314L592.04 297.765M609.076 287.738L618.96 267.404M609.076 287.738L592.04 297.765M618.96 267.404L592.04 282.326M592.04 282.326L577.054 291.637M592.04 282.326V297.765" stroke="white" stroke-opacity="0.25"/>
<path d="M704 397.365V429.038M704 397.365L731.201 383L732.607 396.847L757.96 397.404M704 397.365L731.04 412.326M704 429.038L731.08 444M704 429.038L716.054 421.637M731.08 444L758 429.118L748.076 417.738M731.08 444L716.054 421.637M731.08 444L731.04 427.765M748.076 417.738L757.96 397.404M748.076 417.738L731.04 427.765M757.96 397.404L731.04 412.326M731.04 412.326L716.054 421.637M731.04 412.326V427.765" stroke="white" stroke-opacity="0.25"/>
<path d="M566 526.365V558.038M566 526.365L593.201 512L594.607 525.847L619.96 526.404M566 526.365L593.04 541.326M566 558.038L593.08 573M566 558.038L578.054 550.637M593.08 573L620 558.118L610.076 546.738M593.08 573L578.054 550.637M593.08 573L593.04 556.765M610.076 546.738L619.96 526.404M610.076 546.738L593.04 556.765M619.96 526.404L593.04 541.326M593.04 541.326L578.054 550.637M593.04 541.326V556.765" stroke="white" stroke-opacity="0.25"/>
<path d="M568 762.365V794.038M568 762.365L595.201 748L596.607 761.847L621.96 762.404M568 762.365L595.04 777.326M568 794.038L595.08 809M568 794.038L580.054 786.637M595.08 809L622 794.118L612.076 782.738M595.08 809L580.054 786.637M595.08 809L595.04 792.765M612.076 782.738L621.96 762.404M612.076 782.738L595.04 792.765M621.96 762.404L595.04 777.326M595.04 777.326L580.054 786.637M595.04 777.326V792.765" stroke="white" stroke-opacity="0.25"/>
<path d="M675 644.365V676.038M675 644.365L702.201 630L703.607 643.847L728.96 644.404M675 644.365L702.04 659.326M675 676.038L702.08 691M675 676.038L687.054 668.637M702.08 691L729 676.118L719.076 664.738M702.08 691L687.054 668.637M702.08 691L702.04 674.765M719.076 664.738L728.96 644.404M719.076 664.738L702.04 674.765M728.96 644.404L702.04 659.326M702.04 659.326L687.054 668.637M702.04 659.326V674.765" stroke="white" stroke-opacity="0.25"/>
<path d="M693 900.365V932.038M693 900.365L720.201 886L721.607 899.847L746.96 900.404M693 900.365L720.04 915.326M693 932.038L720.08 947M693 932.038L705.054 924.637M720.08 947L747 932.118L737.076 920.738M720.08 947L705.054 924.637M720.08 947L720.04 930.765M737.076 920.738L746.96 900.404M737.076 920.738L720.04 930.765M746.96 900.404L720.04 915.326M720.04 915.326L705.054 924.637M720.04 915.326V930.765" stroke="white" stroke-opacity="0.25"/>
<path d="M1209 161.365V193.038M1209 161.365L1236.2 147L1237.61 160.847L1262.96 161.404M1209 161.365L1236.04 176.326M1209 193.038L1236.08 208M1209 193.038L1221.05 185.637M1236.08 208L1263 193.118L1253.08 181.738M1236.08 208L1221.05 185.637M1236.08 208L1236.04 191.765M1253.08 181.738L1262.96 161.404M1253.08 181.738L1236.04 191.765M1262.96 161.404L1236.04 176.326M1236.04 176.326L1221.05 185.637M1236.04 176.326V191.765" stroke="white" stroke-opacity="0.25"/>
<path d="M1079 267.365V299.038M1079 267.365L1106.2 253L1107.61 266.847L1132.96 267.404M1079 267.365L1106.04 282.326M1079 299.038L1106.08 314M1079 299.038L1091.05 291.637M1106.08 314L1133 299.118L1123.08 287.738M1106.08 314L1091.05 291.637M1106.08 314L1106.04 297.765M1123.08 287.738L1132.96 267.404M1123.08 287.738L1106.04 297.765M1132.96 267.404L1106.04 282.326M1106.04 282.326L1091.05 291.637M1106.04 282.326V297.765" stroke="white" stroke-opacity="0.25"/>
<path d="M1218 397.365V429.038M1218 397.365L1245.2 383L1246.61 396.847L1271.96 397.404M1218 397.365L1245.04 412.326M1218 429.038L1245.08 444M1218 429.038L1230.05 421.637M1245.08 444L1272 429.118L1262.08 417.738M1245.08 444L1230.05 421.637M1245.08 444L1245.04 427.765M1262.08 417.738L1271.96 397.404M1262.08 417.738L1245.04 427.765M1271.96 397.404L1245.04 412.326M1245.04 412.326L1230.05 421.637M1245.04 412.326V427.765" stroke="white" stroke-opacity="0.25"/>
<path d="M1080 526.365V558.038M1080 526.365L1107.2 512L1108.61 525.847L1133.96 526.404M1080 526.365L1107.04 541.326M1080 558.038L1107.08 573M1080 558.038L1092.05 550.637M1107.08 573L1134 558.118L1124.08 546.738M1107.08 573L1092.05 550.637M1107.08 573L1107.04 556.765M1124.08 546.738L1133.96 526.404M1124.08 546.738L1107.04 556.765M1133.96 526.404L1107.04 541.326M1107.04 541.326L1092.05 550.637M1107.04 541.326V556.765" stroke="white" stroke-opacity="0.25"/>
<path d="M1082 762.365V794.038M1082 762.365L1109.2 748L1110.61 761.847L1135.96 762.404M1082 762.365L1109.04 777.326M1082 794.038L1109.08 809M1082 794.038L1094.05 786.637M1109.08 809L1136 794.118L1126.08 782.738M1109.08 809L1094.05 786.637M1109.08 809L1109.04 792.765M1126.08 782.738L1135.96 762.404M1126.08 782.738L1109.04 792.765M1135.96 762.404L1109.04 777.326M1109.04 777.326L1094.05 786.637M1109.04 777.326V792.765" stroke="white" stroke-opacity="0.25"/>
<path d="M1189 644.365V676.038M1189 644.365L1216.2 630L1217.61 643.847L1242.96 644.404M1189 644.365L1216.04 659.326M1189 676.038L1216.08 691M1189 676.038L1201.05 668.637M1216.08 691L1243 676.118L1233.08 664.738M1216.08 691L1201.05 668.637M1216.08 691L1216.04 674.765M1233.08 664.738L1242.96 644.404M1233.08 664.738L1216.04 674.765M1242.96 644.404L1216.04 659.326M1216.04 659.326L1201.05 668.637M1216.04 659.326V674.765" stroke="white" stroke-opacity="0.25"/>
<path d="M1207 900.365V932.038M1207 900.365L1234.2 886L1235.61 899.847L1260.96 900.404M1207 900.365L1234.04 915.326M1207 932.038L1234.08 947M1207 932.038L1219.05 924.637M1234.08 947L1261 932.118L1251.08 920.738M1234.08 947L1219.05 924.637M1234.08 947L1234.04 930.765M1251.08 920.738L1260.96 900.404M1251.08 920.738L1234.04 930.765M1260.96 900.404L1234.04 915.326M1234.04 915.326L1219.05 924.637M1234.04 915.326V930.765" stroke="white" stroke-opacity="0.25"/>
<path d="M438 161.365V193.038M438 161.365L465.201 147L466.607 160.847L491.96 161.404M438 161.365L465.04 176.326M438 193.038L465.08 208M438 193.038L450.054 185.637M465.08 208L492 193.118L482.076 181.738M465.08 208L450.054 185.637M465.08 208L465.04 191.765M482.076 181.738L491.96 161.404M482.076 181.738L465.04 191.765M491.96 161.404L465.04 176.326M465.04 176.326L450.054 185.637M465.04 176.326V191.765" stroke="white" stroke-opacity="0.25"/>
<path d="M308 267.365V299.038M308 267.365L335.201 253L336.607 266.847L361.96 267.404M308 267.365L335.04 282.326M308 299.038L335.08 314M308 299.038L320.054 291.637M335.08 314L362 299.118L352.076 287.738M335.08 314L320.054 291.637M335.08 314L335.04 297.765M352.076 287.738L361.96 267.404M352.076 287.738L335.04 297.765M361.96 267.404L335.04 282.326M335.04 282.326L320.054 291.637M335.04 282.326V297.765" stroke="white" stroke-opacity="0.25"/>
<path d="M447 397.365V429.038M447 397.365L474.201 383L475.607 396.847L500.96 397.404M447 397.365L474.04 412.326M447 429.038L474.08 444M447 429.038L459.054 421.637M474.08 444L501 429.118L491.076 417.738M474.08 444L459.054 421.637M474.08 444L474.04 427.765M491.076 417.738L500.96 397.404M491.076 417.738L474.04 427.765M500.96 397.404L474.04 412.326M474.04 412.326L459.054 421.637M474.04 412.326V427.765" stroke="white" stroke-opacity="0.25"/>
<path d="M309 526.365V558.038M309 526.365L336.201 512L337.607 525.847L362.96 526.404M309 526.365L336.04 541.326M309 558.038L336.08 573M309 558.038L321.054 550.637M336.08 573L363 558.118L353.076 546.738M336.08 573L321.054 550.637M336.08 573L336.04 556.765M353.076 546.738L362.96 526.404M353.076 546.738L336.04 556.765M362.96 526.404L336.04 541.326M336.04 541.326L321.054 550.637M336.04 541.326V556.765" stroke="white" stroke-opacity="0.25"/>
<path d="M311 762.365V794.038M311 762.365L338.201 748L339.607 761.847L364.96 762.404M311 762.365L338.04 777.326M311 794.038L338.08 809M311 794.038L323.054 786.637M338.08 809L365 794.118L355.076 782.738M338.08 809L323.054 786.637M338.08 809L338.04 792.765M355.076 782.738L364.96 762.404M355.076 782.738L338.04 792.765M364.96 762.404L338.04 777.326M338.04 777.326L323.054 786.637M338.04 777.326V792.765" stroke="white" stroke-opacity="0.25"/>
<path d="M418 644.365V676.038M418 644.365L445.201 630L446.607 643.847L471.96 644.404M418 644.365L445.04 659.326M418 676.038L445.08 691M418 676.038L430.054 668.637M445.08 691L472 676.118L462.076 664.738M445.08 691L430.054 668.637M445.08 691L445.04 674.765M462.076 664.738L471.96 644.404M462.076 664.738L445.04 674.765M471.96 644.404L445.04 659.326M445.04 659.326L430.054 668.637M445.04 659.326V674.765" stroke="white" stroke-opacity="0.25"/>
<path d="M436 900.365V932.038M436 900.365L463.201 886L464.607 899.847L489.96 900.404M436 900.365L463.04 915.326M436 932.038L463.08 947M436 932.038L448.054 924.637M463.08 947L490 932.118L480.076 920.738M463.08 947L448.054 924.637M463.08 947L463.04 930.765M480.076 920.738L489.96 900.404M480.076 920.738L463.04 930.765M489.96 900.404L463.04 915.326M463.04 915.326L448.054 924.637M463.04 915.326V930.765" stroke="white" stroke-opacity="0.25"/>
<path d="M952 161.365V193.038M952 161.365L979.201 147L980.607 160.847L1005.96 161.404M952 161.365L979.04 176.326M952 193.038L979.08 208M952 193.038L964.054 185.637M979.08 208L1006 193.118L996.076 181.738M979.08 208L964.054 185.637M979.08 208L979.04 191.765M996.076 181.738L1005.96 161.404M996.076 181.738L979.04 191.765M1005.96 161.404L979.04 176.326M979.04 176.326L964.054 185.637M979.04 176.326V191.765" stroke="white" stroke-opacity="0.25"/>
<path d="M822 267.365V299.038M822 267.365L849.201 253L850.607 266.847L875.96 267.404M822 267.365L849.04 282.326M822 299.038L849.08 314M822 299.038L834.054 291.637M849.08 314L876 299.118L866.076 287.738M849.08 314L834.054 291.637M849.08 314L849.04 297.765M866.076 287.738L875.96 267.404M866.076 287.738L849.04 297.765M875.96 267.404L849.04 282.326M849.04 282.326L834.054 291.637M849.04 282.326V297.765" stroke="white" stroke-opacity="0.25"/>
<path d="M961 397.365V429.038M961 397.365L988.201 383L989.607 396.847L1014.96 397.404M961 397.365L988.04 412.326M961 429.038L988.08 444M961 429.038L973.054 421.637M988.08 444L1015 429.118L1005.08 417.738M988.08 444L973.054 421.637M988.08 444L988.04 427.765M1005.08 417.738L1014.96 397.404M1005.08 417.738L988.04 427.765M1014.96 397.404L988.04 412.326M988.04 412.326L973.054 421.637M988.04 412.326V427.765" stroke="white" stroke-opacity="0.25"/>
<path d="M823 526.365V558.038M823 526.365L850.201 512L851.607 525.847L876.96 526.404M823 526.365L850.04 541.326M823 558.038L850.08 573M823 558.038L835.054 550.637M850.08 573L877 558.118L867.076 546.738M850.08 573L835.054 550.637M850.08 573L850.04 556.765M867.076 546.738L876.96 526.404M867.076 546.738L850.04 556.765M876.96 526.404L850.04 541.326M850.04 541.326L835.054 550.637M850.04 541.326V556.765" stroke="white" stroke-opacity="0.25"/>
<path d="M825 762.365V794.038M825 762.365L852.201 748L853.607 761.847L878.96 762.404M825 762.365L852.04 777.326M825 794.038L852.08 809M825 794.038L837.054 786.637M852.08 809L879 794.118L869.076 782.738M852.08 809L837.054 786.637M852.08 809L852.04 792.765M869.076 782.738L878.96 762.404M869.076 782.738L852.04 792.765M878.96 762.404L852.04 777.326M852.04 777.326L837.054 786.637M852.04 777.326V792.765" stroke="white" stroke-opacity="0.25"/>
<path d="M932 644.365V676.038M932 644.365L959.201 630L960.607 643.847L985.96 644.404M932 644.365L959.04 659.326M932 676.038L959.08 691M932 676.038L944.054 668.637M959.08 691L986 676.118L976.076 664.738M959.08 691L944.054 668.637M959.08 691L959.04 674.765M976.076 664.738L985.96 644.404M976.076 664.738L959.04 674.765M985.96 644.404L959.04 659.326M959.04 659.326L944.054 668.637M959.04 659.326V674.765" stroke="white" stroke-opacity="0.25"/>
<path d="M950 900.365V932.038M950 900.365L977.201 886L978.607 899.847L1003.96 900.404M950 900.365L977.04 915.326M950 932.038L977.08 947M950 932.038L962.054 924.637M977.08 947L1004 932.118L994.076 920.738M977.08 947L962.054 924.637M977.08 947L977.04 930.765M994.076 920.738L1003.96 900.404M994.076 920.738L977.04 930.765M1003.96 900.404L977.04 915.326M977.04 915.326L962.054 924.637M977.04 915.326V930.765" stroke="white" stroke-opacity="0.25"/>
<path d="M1336 267.365V299.038M1336 267.365L1365.22 253L1366.73 266.847L1393.96 267.404M1336 267.365L1365.04 282.326M1336 299.038L1365.09 314M1336 299.038L1348.95 291.637M1365.09 314L1394 299.118L1383.34 287.738M1365.09 314L1348.95 291.637M1365.09 314L1365.04 297.765M1383.34 287.738L1393.96 267.404M1383.34 287.738L1365.04 297.765M1393.96 267.404L1365.04 282.326M1365.04 282.326L1348.95 291.637M1365.04 282.326V297.765" stroke="white" stroke-opacity="0.25"/>
<path d="M1337 526.365V558.038M1337 526.365L1366.22 512L1367.73 525.847L1394.96 526.404M1337 526.365L1366.04 541.326M1337 558.038L1366.09 573M1337 558.038L1349.95 550.637M1366.09 573L1395 558.118L1384.34 546.738M1366.09 573L1349.95 550.637M1366.09 573L1366.04 556.765M1384.34 546.738L1394.96 526.404M1384.34 546.738L1366.04 556.765M1394.96 526.404L1366.04 541.326M1366.04 541.326L1349.95 550.637M1366.04 541.326V556.765" stroke="white" stroke-opacity="0.25"/>
<path d="M1339 762.365V794.038M1339 762.365L1368.22 748L1369.73 761.847L1396.96 762.404M1339 762.365L1368.04 777.326M1339 794.038L1368.09 809M1339 794.038L1351.95 786.637M1368.09 809L1397 794.118L1386.34 782.738M1368.09 809L1351.95 786.637M1368.09 809L1368.04 792.765M1386.34 782.738L1396.96 762.404M1386.34 782.738L1368.04 792.765M1396.96 762.404L1368.04 777.326M1368.04 777.326L1351.95 786.637M1368.04 777.326V792.765" stroke="white" stroke-opacity="0.25"/>
</g>
<defs>
<clipPath id="clip0_1_2">
<rect width="1440" height="1024" fill="white"/>
</clipPath>
</defs>
</svg>
