<svg width="261" height="88" viewBox="0 0 261 88" fill="none" xmlns="http://www.w3.org/2000/svg">
<rect width="261" height="88" rx="44" fill="#E1A77A"/>
<path d="M69.2472 55.3523C67.6619 55.3523 66.2969 54.978 65.152 54.2294C64.0071 53.4808 63.1264 52.4497 62.5099 51.136C61.8935 49.8223 61.5852 48.3215 61.5852 46.6335C61.5852 44.9162 61.9008 43.4007 62.532 42.087C63.1705 40.766 64.0585 39.7348 65.196 38.9936C66.3409 38.245 67.6766 37.8707 69.2031 37.8707C70.392 37.8707 71.4635 38.0909 72.4176 38.5312C73.3717 38.9716 74.1533 39.5881 74.7624 40.3807C75.3716 41.1733 75.7495 42.098 75.8963 43.1548H73.2983C73.1001 42.3842 72.6598 41.7017 71.9773 41.1072C71.3021 40.5054 70.392 40.2045 69.2472 40.2045C68.2344 40.2045 67.3464 40.4687 66.5831 40.9972C65.8272 41.5182 65.2364 42.2558 64.8107 43.2099C64.3924 44.1566 64.1832 45.2685 64.1832 46.5455C64.1832 47.8518 64.3887 48.9893 64.7997 49.9581C65.218 50.9268 65.8052 51.6791 66.5611 52.2148C67.3243 52.7506 68.2197 53.0185 69.2472 53.0185C69.9223 53.0185 70.5352 52.901 71.0856 52.6662C71.636 52.4313 72.102 52.0938 72.4837 51.6534C72.8653 51.2131 73.1368 50.6847 73.2983 50.0682H75.8963C75.7495 51.0663 75.3862 51.9653 74.8065 52.7653C74.234 53.5579 73.4744 54.189 72.5277 54.6587C71.5883 55.1211 70.4948 55.3523 69.2472 55.3523ZM82.2923 32.4545V55H79.6942V32.4545H82.2923ZM87.0507 55V38.0909H89.6487V55H87.0507ZM88.3717 35.2727C87.8653 35.2727 87.4287 35.1003 87.0617 34.7553C86.7021 34.4104 86.5223 33.9957 86.5223 33.5114C86.5223 33.027 86.7021 32.6123 87.0617 32.2674C87.4287 31.9225 87.8653 31.75 88.3717 31.75C88.8781 31.75 89.3111 31.9225 89.6707 32.2674C90.0377 32.6123 90.2211 33.027 90.2211 33.5114C90.2211 33.9957 90.0377 34.4104 89.6707 34.7553C89.3111 35.1003 88.8781 35.2727 88.3717 35.2727ZM101.276 55.3523C99.6912 55.3523 98.3262 54.978 97.1813 54.2294C96.0364 53.4808 95.1557 52.4497 94.5392 51.136C93.9228 49.8223 93.6145 48.3215 93.6145 46.6335C93.6145 44.9162 93.9301 43.4007 94.5613 42.087C95.1998 40.766 96.0878 39.7348 97.2253 38.9936C98.3702 38.245 99.7059 37.8707 101.232 37.8707C102.421 37.8707 103.493 38.0909 104.447 38.5312C105.401 38.9716 106.183 39.5881 106.792 40.3807C107.401 41.1733 107.779 42.098 107.926 43.1548H105.328C105.129 42.3842 104.689 41.7017 104.007 41.1072C103.331 40.5054 102.421 40.2045 101.276 40.2045C100.264 40.2045 99.3757 40.4687 98.6124 40.9972C97.8565 41.5182 97.2657 42.2558 96.84 43.2099C96.4217 44.1566 96.2125 45.2685 96.2125 46.5455C96.2125 47.8518 96.418 48.9893 96.829 49.9581C97.2473 50.9268 97.8345 51.6791 98.5904 52.2148C99.3536 52.7506 100.249 53.0185 101.276 53.0185C101.952 53.0185 102.564 52.901 103.115 52.6662C103.665 52.4313 104.131 52.0938 104.513 51.6534C104.895 51.2131 105.166 50.6847 105.328 50.0682H107.926C107.779 51.0663 107.416 51.9653 106.836 52.7653C106.263 53.5579 105.504 54.189 104.557 54.6587C103.618 55.1211 102.524 55.3523 101.276 55.3523ZM114.145 48.8352L114.101 45.6207H114.63L122.028 38.0909H125.242L117.36 46.0611H117.14L114.145 48.8352ZM111.724 55V32.4545H114.322V55H111.724ZM122.468 55L115.863 46.6335L117.712 44.8281L125.77 55H122.468ZM139.903 44.8281V55H137.305V32.4545H139.903V40.733H140.123C140.519 39.8596 141.114 39.1661 141.906 38.6523C142.706 38.1313 143.77 37.8707 145.099 37.8707C146.251 37.8707 147.26 38.1019 148.126 38.5643C148.992 39.0193 149.664 39.7202 150.141 40.6669C150.625 41.6063 150.867 42.8026 150.867 44.2557V55H148.269V44.4318C148.269 43.0888 147.92 42.0503 147.223 41.3164C146.533 40.5752 145.576 40.2045 144.35 40.2045C143.499 40.2045 142.735 40.3844 142.06 40.744C141.392 41.1036 140.864 41.6283 140.475 42.3182C140.093 43.008 139.903 43.8447 139.903 44.8281ZM162.71 55.3523C161.08 55.3523 159.675 54.9927 158.493 54.2734C157.319 53.5469 156.413 52.5341 155.774 51.2351C155.143 49.9287 154.827 48.4096 154.827 46.6776C154.827 44.9455 155.143 43.419 155.774 42.098C156.413 40.7696 157.301 39.7348 158.438 38.9936C159.583 38.245 160.919 37.8707 162.445 37.8707C163.326 37.8707 164.196 38.0175 165.054 38.3111C165.913 38.6046 166.695 39.0817 167.399 39.7422C168.104 40.3954 168.665 41.2614 169.083 42.3402C169.502 43.419 169.711 44.7474 169.711 46.3253V47.4261H156.677V45.1804H167.069C167.069 44.2263 166.878 43.375 166.496 42.6264C166.122 41.8778 165.586 41.287 164.889 40.854C164.199 40.421 163.385 40.2045 162.445 40.2045C161.411 40.2045 160.515 40.4614 159.759 40.9751C159.011 41.4815 158.435 42.142 158.031 42.9567C157.627 43.7713 157.425 44.6446 157.425 45.5767V47.0739C157.425 48.3509 157.646 49.4334 158.086 50.3214C158.534 51.2021 159.154 51.8736 159.946 52.3359C160.739 52.791 161.66 53.0185 162.71 53.0185C163.392 53.0185 164.009 52.9231 164.559 52.7322C165.117 52.5341 165.597 52.2405 166.001 51.8516C166.405 51.4553 166.717 50.9635 166.937 50.3764L169.447 51.081C169.183 51.9323 168.739 52.6809 168.115 53.3267C167.491 53.9652 166.72 54.4643 165.803 54.8239C164.886 55.1761 163.854 55.3523 162.71 55.3523ZM173.663 55V38.0909H176.173V40.6449H176.349C176.657 39.8082 177.215 39.1294 178.022 38.6083C178.83 38.0872 179.74 37.8267 180.752 37.8267C180.943 37.8267 181.182 37.8304 181.468 37.8377C181.754 37.8451 181.971 37.8561 182.118 37.8707V40.5128C182.029 40.4908 181.828 40.4577 181.512 40.4137C181.204 40.3623 180.877 40.3366 180.532 40.3366C179.71 40.3366 178.976 40.5091 178.331 40.854C177.692 41.1916 177.186 41.6613 176.811 42.2631C176.444 42.8576 176.261 43.5365 176.261 44.2997V55H173.663ZM191.772 55.3523C190.143 55.3523 188.737 54.9927 187.556 54.2734C186.382 53.5469 185.475 52.5341 184.837 51.2351C184.205 49.9287 183.89 48.4096 183.89 46.6776C183.89 44.9455 184.205 43.419 184.837 42.098C185.475 40.7696 186.363 39.7348 187.501 38.9936C188.646 38.245 189.981 37.8707 191.508 37.8707C192.388 37.8707 193.258 38.0175 194.117 38.3111C194.975 38.6046 195.757 39.0817 196.462 39.7422C197.166 40.3954 197.728 41.2614 198.146 42.3402C198.564 43.419 198.773 44.7474 198.773 46.3253V47.4261H185.739V45.1804H196.131C196.131 44.2263 195.941 43.375 195.559 42.6264C195.185 41.8778 194.649 41.287 193.952 40.854C193.262 40.421 192.447 40.2045 191.508 40.2045C190.473 40.2045 189.578 40.4614 188.822 40.9751C188.073 41.4815 187.497 42.142 187.093 42.9567C186.69 43.7713 186.488 44.6446 186.488 45.5767V47.0739C186.488 48.3509 186.708 49.4334 187.148 50.3214C187.596 51.2021 188.216 51.8736 189.009 52.3359C189.801 52.791 190.723 53.0185 191.772 53.0185C192.455 53.0185 193.071 52.9231 193.621 52.7322C194.179 52.5341 194.66 52.2405 195.064 51.8516C195.467 51.4553 195.779 50.9635 195.999 50.3764L198.509 51.081C198.245 51.9323 197.801 52.6809 197.177 53.3267C196.553 53.9652 195.783 54.4643 194.865 54.8239C193.948 55.1761 192.917 55.3523 191.772 55.3523Z" fill="#6E4F3A"/>
</svg>
